<?xml version="1.0" encoding="utf-8"?>
<!-- Generator: Adobe Illustrator 20.1.0, SVG Export Plug-In . SVG Version: 6.00 Build 0)  -->
<svg version="1.1" id="Layer_1" xmlns="http://www.w3.org/2000/svg" xmlns:xlink="http://www.w3.org/1999/xlink" x="0px" y="0px"
	 viewBox="0 0 152.5 274.5" style="enable-background:new 0 0 152.5 274.5;" xml:space="preserve">
<style type="text/css">
	.st0{fill:#0082BC;}
	.st1{fill:none;stroke:#000000;stroke-width:4;stroke-miterlimit:10;}
	.st2{fill:#FFDCC0;stroke:#000000;stroke-width:4;stroke-miterlimit:10;}
	.st3{fill:#F0F0F0;stroke:#000000;stroke-width:4;stroke-miterlimit:10;}
	.st4{fill:#FFDCC0;}
	.st5{fill:#794500;}
	.st6{fill:none;stroke:#000000;stroke-width:4;stroke-linejoin:round;stroke-miterlimit:10;}
	.st7{fill:#DDD2C7;}
</style>
<path class="st0" d="M94.5,255.9c0,0-4.3-43.6-4.6-46.3c-0.3-2.7,1.9-8.2,7.9-9.7c6.1-1.4,14-0.2,15.4,6.4c1.3,6.6,0,47.7,0,47.7
	L94.5,255.9z"/>
<path class="st1" d="M94.5,255.9c0,0-4.3-43.6-4.6-46.3c-0.3-2.7,1.9-8.2,7.9-9.7c6.1-1.4,14-0.2,15.4,6.4c1.3,6.6,0,47.7,0,47.7
	L94.5,255.9z"/>
<ellipse transform="matrix(0.1251 -0.9921 0.9921 0.1251 -58.1396 289.721)" class="st2" cx="135.2" cy="177.8" rx="11.4" ry="11.4"/>
<ellipse transform="matrix(0.1251 -0.9921 0.9921 0.1251 -58.1396 289.721)" class="st1" cx="135.2" cy="177.8" rx="11.4" ry="11.4"/>
<path class="st2" d="M123.7,179.7c0,0-29.5-36.5-30.3-39.4c-0.8-2.9-1.1-9.6,4.2-13.3c5.3-3.7,13-2.5,15.5-0.7
	c2.4,1.8,26.4,41.8,26.4,41.8s-2.9,4.3-7.1,7.5C128.2,178.8,123.7,179.7,123.7,179.7z"/>
<path class="st1" d="M123.7,179.7c0,0-29.5-36.5-30.3-39.4c-0.8-2.9-1.1-9.6,4.2-13.3c5.3-3.7,13-2.5,15.5-0.7
	c2.4,1.8,26.4,41.8,26.4,41.8s-2.9,4.3-7.1,7.5C128.2,178.8,123.7,179.7,123.7,179.7z"/>
<path class="st3" d="M48,122.2c0,0-0.9,11.6-1.9,29.1s-1.5,35.4-1.5,35.4s13,2.4,36.8,2.5c24.5,0.1,34.4-1.2,34.4-1.2
	s-0.7-16.3-1.4-34.3s-2.5-33.7-2.5-33.7L48,122.2z"/>
<path class="st1" d="M48,122.2c0,0-0.9,11.6-1.9,29.1s-1.5,35.4-1.5,35.4s13,2.4,36.8,2.5c24.5,0.1,34.4-1.2,34.4-1.2
	s-0.7-16.3-1.4-34.3s-2.5-33.7-2.5-33.7L48,122.2z"/>
<path class="st0" d="M44.8,183c0,0-0.7,8.5-0.7,14.8s-0.7,11.3,3,13s15.7,3.5,36,3.3s27-0.8,29.7-1.8c2.7-1,3.8-3.2,3.7-7.5
	c-0.2-4.3-0.9-21.1-0.9-21.1s-10.8,2.1-34.5,1.5S44.8,183,44.8,183z"/>
<path class="st1" d="M44.8,183c0,0-0.7,8.5-0.7,14.8s-0.7,11.3,3,13s15.7,3.5,36,3.3s27-0.8,29.7-1.8c2.7-1,3.8-3.2,3.7-7.5
	c-0.2-4.3-0.9-21.1-0.9-21.1s-10.8,2.1-34.5,1.5S44.8,183,44.8,183z"/>
<path class="st0" d="M46.2,254.8c0,0,0-43.8,0-46.5s2.7-8,8.8-8.8s14,1.2,14.7,7.8c0.7,6.7-4.7,47.5-4.7,47.5H46.2z"/>
<path class="st1" d="M46.2,254.8c0,0,0-43.8,0-46.5s2.7-8,8.8-8.8s14,1.2,14.7,7.8c0.7,6.7-4.7,47.5-4.7,47.5H46.2z"/>
<path class="st2" d="M49.2,271c-8,0-8.3-7.8-7.4-11.2c0.9-3.4,4.4-6.9,4.4-6.9s3.2,1,9.5,1s9.7-0.9,9.7-0.9s18.2,2.9,18.2,9.7
	c0,6.8-5.9,8.2-11.3,8.2C64.4,270.9,57.1,271,49.2,271z"/>
<path class="st2" d="M97,271c-8,0-8.3-7.8-7.4-11.2c0.9-3.4,4.4-6.9,4.4-6.9s3.2,1,9.5,1s9.7-0.9,9.7-0.9s18.2,2.9,18.2,9.7
	c0,6.8-5.9,8.2-11.3,8.2C112.3,270.9,105,271,97,271z"/>
<ellipse transform="matrix(0.9093 -0.4162 0.4162 0.9093 -74.4286 29.7818)" class="st2" cx="31.1" cy="185.6" rx="11.4" ry="11.4"/>
<ellipse transform="matrix(0.9093 -0.4162 0.4162 0.9093 -74.4286 29.7818)" class="st1" cx="31.1" cy="185.6" rx="11.4" ry="11.4"/>
<path class="st2" d="M23.5,176.8c0,0,15.5-44.3,17.5-46.5s7.6-5.9,13.5-3.4c5.9,2.5,9,9.8,8.7,12.8s-21.6,44.4-21.6,44.4
	s-5.2-0.2-10.2-2.1S23.5,176.8,23.5,176.8z"/>
<path class="st1" d="M23.5,176.8c0,0,15.5-44.3,17.5-46.5s7.6-5.9,13.5-3.4c5.9,2.5,9,9.8,8.7,12.8s-21.6,44.4-21.6,44.4
	s-5.2-0.2-10.2-2.1S23.5,176.8,23.5,176.8z"/>
<path class="st4" d="M100.9,120.5c0,0-1.6,18.6-16.8,18.4s-18-17.2-18-17.2L100.9,120.5z"/>
<path class="st1" d="M66.2,121.7c0,0,2.8,17,18,17.2s16.8-18.4,16.8-18.4"/>
<path class="st2" d="M149.4,69.1c0,33.8-32.5,57.4-72.5,57.4S4.3,102.9,4.3,69.1S36.8,4,76.8,4S149.4,35.3,149.4,69.1z"/>
<path class="st1" d="M149.4,69.1c0,33.8-32.5,57.4-72.5,57.4S4.3,102.9,4.3,69.1S36.8,4,76.8,4S149.4,35.3,149.4,69.1z"/>
<g>
	<path class="st5" d="M82,91.2c49.7-3,27.6,34.4,4,36.5C62.5,129.8,32.3,94.2,82,91.2z"/>
	<path class="st1" d="M82,91.2c49.7-3,27.6,34.4,4,36.5C62.5,129.8,32.3,94.2,82,91.2z"/>
</g>
<path class="st5" d="M37.8,21.1c-4.1-6-26.4-2.8-33.7,17.3s0,44,0,44s1.8-17.3,13.7-32S41.8,27.1,37.8,21.1z"/>
<path class="st6" d="M37.8,21.1c-4.1-6-26.4-2.8-33.7,17.3s0,44,0,44s1.8-17.3,13.7-32S41.8,27.1,37.8,21.1z"/>
<path class="st5" d="M32.6,18.2c-2.4,4.1-7.6,24,37.7,12.1s86.5,8.8,86.5,8.8S136.9,2.8,93-1.8S35,14,32.6,18.2z"/>
<path class="st6" d="M32.6,18.2c-2.4,4.1-7.6,24,37.7,12.1s86.5,8.8,86.5,8.8S136.9,2.8,93-1.8S35,14,32.6,18.2z"/>
<path class="st7" d="M99.1,144c-1.8,0-3.5,5.6-3.6,9.5s-0.1,9.1,3.6,9.1s3.4-3.4,4.1-3.4s0,8.8,2.6,8.8s2.5-11.4,1.6-13.1
	s-2.4-6.1-5-2.9S100.9,144,99.1,144z"/>
<ellipse cx="70.6" cy="55.9" rx="3.4" ry="5.5"/>
<ellipse cx="94" cy="55.9" rx="3.4" ry="5.5"/>
</svg>
