<?xml version="1.0" encoding="utf-8"?>
<!-- Generator: Adobe Illustrator 20.1.0, SVG Export Plug-In . SVG Version: 6.00 Build 0)  -->
<svg version="1.1" id="Layer_1" xmlns="http://www.w3.org/2000/svg" xmlns:xlink="http://www.w3.org/1999/xlink" x="0px" y="0px"
	 viewBox="0 0 78.3 99.8" style="enable-background:new 0 0 78.3 99.8;" xml:space="preserve">
<style type="text/css">
	.st0{fill:#FFFFFF;stroke:#D1D3D4;stroke-width:4;stroke-miterlimit:10;}
</style>
<path class="st0" d="M7.1,5c0,0-0.9,11.6-1.9,29.1S3.7,69.5,3.7,69.5s13,2.4,36.8,2.5c24.5,0.1,34.4-1.2,34.4-1.2
	s-0.7-16.3-1.4-34.3S71,2.8,71,2.8L7.1,5z"/>
<path class="st0" d="M4,65.8c0,0-0.7,8.5-0.7,14.8c0,6.3-0.7,11.3,3,13c3.7,1.7,15.7,3.5,36,3.3s27-0.8,29.7-1.8s3.8-3.2,3.7-7.5
	c-0.2-4.3-0.9-21.1-0.9-21.1S64,68.7,40.2,68.1C16.5,67.4,4,65.8,4,65.8z"/>
</svg>
