<?xml version="1.0" encoding="utf-8"?>
<!-- Generator: Adobe Illustrator 20.1.0, SVG Export Plug-In . SVG Version: 6.00 Build 0)  -->
<svg version="1.1" id="Layer_1" xmlns="http://www.w3.org/2000/svg" xmlns:xlink="http://www.w3.org/1999/xlink" x="0px" y="0px"
	 viewBox="0 0 27.4 47.8" style="enable-background:new 0 0 27.4 47.8;" xml:space="preserve">
<style type="text/css">
	.st0{fill:#FFFFFF;stroke:#D1D3D4;stroke-width:4;stroke-miterlimit:10;}
</style>
<path class="st0" d="M24.9,43.6c0,0-4.7,2-9.6,1.9C10.5,45.4,6.2,43,6.2,43s1.7-5.5,0.1-11.4s-4-10-4-10s-0.1-4.5,4.8-10.1
	s9.8-8,11.9-8.8s3.8-0.5,3.9,1.1C22.9,5.5,24.9,43.6,24.9,43.6z"/>
<path class="st0" d="M24.9,43.6c0,0-4.7,2-9.6,1.9C10.5,45.4,6.2,43,6.2,43s1.7-5.5,0.1-11.4s-4-10-4-10s-0.1-4.5,4.8-10.1
	s9.8-8,11.9-8.8s3.8-0.5,3.9,1.1C22.9,5.5,24.9,43.6,24.9,43.6z"/>
</svg>
