<?xml version="1.0" encoding="utf-8"?>
<!-- Generator: Adobe Illustrator 20.1.0, SVG Export Plug-In . SVG Version: 6.00 Build 0)  -->
<svg version="1.1" id="Layer_1" xmlns="http://www.w3.org/2000/svg" xmlns:xlink="http://www.w3.org/1999/xlink" x="0px" y="0px"
	 viewBox="0 0 77.3 48.8" style="enable-background:new 0 0 77.3 48.8;" xml:space="preserve">
<style type="text/css">
	.st0{fill:#FFFFFF;stroke:#D1D3D4;stroke-width:4;stroke-miterlimit:10;}
</style>
<g>
	<path class="st0" d="M58.4,41.5c0,0-43.8,2.3-46.4,2.4s-8.1-2.2-9.3-8.4s0.5-14,7.1-15.1c6.6-1,47.7,2.2,47.7,2.2L58.4,41.5z"/>
	<path class="st0" d="M74.7,44.2c0,0-4.7,2-9.6,1.9c-4.8-0.1-9.1-2.5-9.1-2.5s1.7-5.5,0.1-11.4c-1.6-5.9-4-10-4-10
		s-0.1-4.5,4.8-10.1s9.8-8,11.9-8.8c2.1-0.8,3.8-0.5,3.9,1.1S74.7,44.2,74.7,44.2z"/>
</g>
</svg>
