<?xml version="1.0" encoding="utf-8"?>
<!-- Generator: Adobe Illustrator 20.1.0, SVG Export Plug-In . SVG Version: 6.00 Build 0)  -->
<svg version="1.1" id="Layer_1" xmlns="http://www.w3.org/2000/svg" xmlns:xlink="http://www.w3.org/1999/xlink" x="0px" y="0px"
	 viewBox="0 0 175.5 124.5" style="enable-background:new 0 0 175.5 124.5;" xml:space="preserve">
<style type="text/css">
	.st0{fill:#231F20;}
	.st1{fill:#414042;}
</style>
<g>
	<path class="st0" d="M14.6,122.1c-1.9,0-3.7-0.8-5-2.3c-3.8-4.2-9.2-22.3-4.8-45.5c3.7-19.8,13-38.1,55.5-38.1c2.1,0,4.3,0,6.5,0.1
		c12.9,0.5,23.1,0.8,31.2,0.8c18,0,25.8-1.5,36.2-6.9c14.1-7.3,26.9-25.6,27-25.8c0.4-0.5,1-0.9,1.6-0.9c0.1,0,0.2,0,0.3,0
		c0.7,0.1,1.4,0.6,1.6,1.3c0.8,2.1,18.1,51.9-1.3,68.9c-5.9,5.2-12.2,7.7-19,7.7c-9,0-17.8-4.3-27.2-8.8c-4.2-2-8.5-4.1-12.9-5.9
		c-6.4-2.5-14-3.9-22-3.9c-15.6,0-30.8,5-38.5,12.8c-12.2,12.2-16.3,26.8-18.8,35.5C22.6,119.2,18.1,122.1,14.6,122.1
		C14.6,122.1,14.6,122.1,14.6,122.1z"/>
	<path d="M162.8,5.5c0,0,17.9,50.4-0.8,66.8c-6,5.2-11.8,7.2-17.7,7.2c-12.4,0-25-8.9-39.3-14.6c-7-2.8-14.8-4-22.7-4
		c-15.9,0-31.7,5.1-39.9,13.4C30,86.6,25.7,101.2,23,110.6c-1.9,6.5-5.4,9.5-8.4,9.5c-1.3,0-2.6-0.6-3.5-1.6
		c-3.2-3.6-8.7-20.8-4.4-43.8c4.1-21.8,14.8-36.5,53.6-36.5c2.1,0,4.2,0,6.4,0.1c13.1,0.5,23.2,0.8,31.2,0.8c19,0,26.8-1.8,37.1-7.1
		C149.7,24.2,162.8,5.5,162.8,5.5 M162.7,1.5c-1.3,0-2.5,0.6-3.3,1.7l0,0c-0.1,0.2-12.7,18-26.3,25.2c-9,4.7-15.9,6.7-35.2,6.7
		c-8,0-18.2-0.3-31.1-0.8c-2.3-0.1-4.5-0.1-6.6-0.1C41,34.1,27.2,37.7,18,45C10,51.4,5.3,60.3,2.7,73.8c-4.2,22.3,0.4,41.8,5.3,47.3
		c1.7,1.9,4,3,6.5,3c6.4,0,10.6-6.4,12.3-12.4c2.4-8.5,6.5-22.8,18.3-34.6c7.3-7.3,22.2-12.2,37.1-12.2c7.7,0,15.1,1.3,21.2,3.7
		c4.3,1.7,8.6,3.8,12.7,5.8c9.6,4.6,18.6,9,28,9c7.4,0,14-2.7,20.3-8.2c8.8-7.7,11.8-22.2,8.7-43.1c-2.2-14.9-6.6-27.5-6.8-28
		c-0.5-1.4-1.8-2.4-3.2-2.6C163.1,1.5,162.9,1.5,162.7,1.5L162.7,1.5z"/>
</g>
<path class="st1" d="M11,118.4c-3.2-3.6-8.7-20.8-4.4-43.8s16-38,60-36.3s53.7,1.3,68.3-6.3s27.8-26.4,27.8-26.4s-6,33.5-39.8,38.8
	S65.8,34,30.5,49.8S11,118.4,11,118.4z"/>
</svg>
